<mxfile host="app.diagrams.net" modified="2024-01-06T03:57:29.616Z" agent="Mozilla/5.0 (Windows NT 10.0; Win64; x64) AppleWebKit/537.36 (KHTML, like Gecko) Chrome/120.0.0.0 Safari/537.36" version="22.1.17" etag="rd8c5ylTou3QC8T--D_q" type="github">
  <diagram name="第 1 页" id="ml8Bf8SuUPpHuEMQgduH">
    <mxGraphModel>
      <root>
        <mxCell id="0" />
        <mxCell id="1" parent="0" />
      </root>
    </mxGraphModel>
  </diagram>
</mxfile>
